<svg xmlns="http://www.w3.org/2000/svg" width="285.812" height="309.886" viewBox="0 0 285.812 309.886">
  <g id="Group_39328" data-name="Group 39328" transform="translate(0 0)">
    <path id="Path_71232" data-name="Path 71232" d="M52.248,60.319l17.414-30.16L58.256,10.4,52.248,0H17.415L0,30.162,17.413,60.319Z" transform="translate(123.701 216.295) rotate(180)" fill="#9e9e9e"/>
    <path id="Path_71283" data-name="Path 71283" d="M52.253,60.333,69.669,30.168,52.251,0H17.419L8.708,15.084,0,30.168,2.271,34.1l15.148,26.23Z" transform="translate(69.669 309.886) rotate(180)" fill="#9e9e9e"/>
    <path id="Path_71340" data-name="Path 71340" d="M52.25,60.331l8.71-15.082,8.709-15.082L54.2,3.38,52.253,0H17.419L0,30.166,17.419,60.331Z" transform="translate(231.774 91.525) rotate(180)" fill="#9e9e9e"/>
    <path id="Path_71342" data-name="Path 71342" d="M52.25,60.331,69.669,30.166,52.253,0H17.421L0,30.166,17.419,60.331Z" transform="translate(177.741 122.722) rotate(180)" fill="#9e9e9e"/>
    <path id="Path_71343" data-name="Path 71343" d="M52.25,60.331,69.669,30.166,52.252,0H17.421L0,30.166,17.419,60.331Z" transform="translate(69.67 122.722) rotate(180)" fill="#9e9e9e"/>
    <path id="Path_71345" data-name="Path 71345" d="M52.25,60.331l8.71-15.082,8.709-15.082L54.2,3.38,52.252,0H17.419L0,30.166,17.419,60.331Z" transform="translate(123.703 91.525) rotate(180)" fill="#9e9e9e"/>
    <path id="Path_71397" data-name="Path 71397" d="M52.248,60.323,69.665,30.16,52.248,0H17.419L0,30.162l8.707,15.08,8.708,15.08Z" transform="translate(69.666 185.105) rotate(180)" fill="#9e9e9e"/>
    <path id="Path_72044" data-name="Path 72044" d="M52.255,60.331,69.669,30.167,52.251,0H17.421L8.711,15.082,0,30.167l6.063,10.5L17.419,60.331Z" transform="translate(69.67 60.331) rotate(180)" fill="#9e9e9e"/>
    <path id="Path_72046" data-name="Path 72046" d="M52.255,60.331,69.669,30.167,52.25,0H17.421L8.71,15.082,0,30.167l6.063,10.5L17.419,60.331Z" transform="translate(177.741 60.331) rotate(180)" fill="#9e9e9e"/>
    <path id="Path_72052" data-name="Path 72052" d="M52.254,60.331,69.669,30.167,52.25,0H17.421L0,30.167l3.77,6.526L17.419,60.331Z" transform="translate(285.812 60.331) rotate(180)" fill="#9e9e9e"/>
    <path id="Path_72226" data-name="Path 72226" d="M52.254,60.318,69.667,30.167,52.252,0H17.417L0,30.167l5.336,9.242,12.076,20.91Z" transform="translate(69.668 247.491) rotate(180)" fill="#9e9e9e"/>
    <path id="Path_72236" data-name="Path 72236" d="M52.248,60.323,69.665,30.16,52.248,0H17.419L0,30.162l8.706,15.08,8.709,15.08Z" transform="translate(177.737 185.105) rotate(180)" fill="#9e9e9e"/>
  </g>
</svg>
