<svg xmlns="http://www.w3.org/2000/svg" xmlns:xlink="http://www.w3.org/1999/xlink" width="840.946" height="145.759" viewBox="0 0 840.946 145.759">
  <defs>
    <clipPath id="clip-path">
      <rect id="Rectangle_11176" data-name="Rectangle 11176" width="30.767" height="24.053" fill="#fff"/>
    </clipPath>
  </defs>
  <g id="Group_39370" data-name="Group 39370" transform="translate(-262.527 -996.756)">
    <g id="Group_39367" data-name="Group 39367" transform="translate(31.991 -514.505)">
      <g id="Group_39287" data-name="Group 39287" transform="translate(276.944 1511.261)">
        <g id="Group_39278" data-name="Group 39278" transform="translate(0 0)">
          <g id="Group_39096" data-name="Group 39096" transform="translate(0 0)">
            <g id="Group_39222" data-name="Group 39222">
              <g id="Group_39220" data-name="Group 39220">
                <g id="Group_39216" data-name="Group 39216">
                  <path id="Path_65403" data-name="Path 65403" d="M115.358,113.838c0-18.667,16.181-33.912,34.848-33.912,20.223,0,34.845,13.686,34.845,33.912a34.2,34.2,0,0,1-33.915,33.912,30.432,30.432,0,0,1-18.356-5.6v36.4H115.358Zm52.271,0c0-10.267-7.156-17.734-17.423-17.734-9.959,0-17.426,7.467-17.426,17.734,0,9.956,7.467,17.734,17.426,17.734,10.267,0,17.423-7.778,17.423-17.734" transform="translate(-115.358 -45.792)" fill="#fff"/>
                  <path id="Path_65404" data-name="Path 65404" d="M142.29,112.822V80.466h17.423v32.356c0,9.956,7.467,17.734,17.426,17.734,10.264,0,17.423-7.778,17.423-17.734V80.466h17.42v32.356c0,20.223-17.42,33.912-35.156,33.912-20.223,0-34.534-13.689-34.534-33.912" transform="translate(-64.706 -44.777)" fill="#fff"/>
                  <path id="Path_65405" data-name="Path 65405" d="M169.113,113.838c0-18.667,16.178-33.912,34.848-33.912,20.22,0,33.6,12.756,34.842,33.912v5.911H186.225c2.178,7.778,9.023,13.067,17.737,13.067,5.6,0,8.708-1.556,13.375-5.911l10.578,10.889a33.619,33.619,0,0,1-23.953,9.956c-20.226,0-34.848-13.689-34.848-33.912m52.579-7.467c-2.486-7.467-8.708-12.445-17.731-12.445a17.946,17.946,0,0,0-17.426,12.445Z" transform="translate(-14.259 -45.792)" fill="#fff"/>
                  <path id="Path_65406" data-name="Path 65406" d="M195.964,104.733c0-14.312,10.267-24.267,24.267-24.267h6.222V96.644h-4.978a7.674,7.674,0,0,0-8.089,8.089v40.445H195.964Z" transform="translate(36.24 -44.777)" fill="#fff"/>
                  <rect id="Rectangle_11156" data-name="Rectangle 11156" width="17.426" height="64.713" transform="translate(268.513 35.689)" fill="#fff"/>
                  <path id="Path_65407" data-name="Path 65407" d="M219.665,130.556H262.91a5.063,5.063,0,0,0,5.289-5.289,4.994,4.994,0,0,0-5.289-4.978h-25.2A19.848,19.848,0,0,1,217.8,100.378,20.256,20.256,0,0,1,237.71,80.466h38.579V95.089H239.265a5.184,5.184,0,0,0-5.289,4.978,5.064,5.064,0,0,0,5.289,5.289h25.2a19.655,19.655,0,0,1,19.912,19.912c0,10.267-9.022,19.912-19.912,19.912h-44.8Z" transform="translate(77.304 -44.777)" fill="#fff"/>
                  <path id="Path_65408" data-name="Path 65408" d="M242.239,113.838c0-18.667,16.181-33.912,34.848-33.912,20.223,0,34.845,13.686,34.845,33.912,0,18.667-16.178,33.912-34.845,33.912-20.223,0-34.848-13.689-34.848-33.912m52.271,0c0-10.267-7.156-17.734-17.423-17.734-9.956,0-17.426,7.467-17.426,17.734,0,9.956,7.47,17.734,17.426,17.734,10.267,0,17.423-7.778,17.423-17.734" transform="translate(123.271 -45.792)" fill="#fff"/>
                  <path id="Path_65409" data-name="Path 65409" d="M269.171,113.838c0-20.226,17.423-33.912,35.156-33.912,11.2,0,20.226,4.045,26.448,10.889A36.232,36.232,0,0,1,356.6,79.926c20.22,0,34.534,13.686,34.534,33.912v32.356H373.707V113.838c0-10.267-7.467-17.734-17.423-17.734-10.264,0-17.423,7.467-17.423,17.734v32.356h-17.42V113.838c0-10.267-7.159-17.734-17.423-17.734-9.959,0-17.426,7.467-17.426,17.734v32.356H269.171Z" transform="translate(173.923 -45.792)" fill="#fff"/>
                  <path id="Path_65410" data-name="Path 65410" d="M315.484,113.838c0-20.226,17.425-33.912,35.159-33.912,20.226,0,34.531,13.686,34.531,33.912v32.356h-17.42V113.838c0-10.267-7.156-17.734-17.423-17.734-9.956,0-17.423,7.467-17.423,17.734v32.356H315.484Z" transform="translate(261.026 -45.792)" fill="#fff"/>
                  <rect id="Rectangle_11157" data-name="Rectangle 11157" width="17.426" height="64.713" transform="translate(658.181 35.689)" fill="#fff"/>
                  <path id="Path_65411" data-name="Path 65411" d="M352.951,113.838c0-18.667,16.181-33.912,34.848-33.912,20.223,0,34.845,13.686,34.845,33.912v32.356H405.53v-5.6c-4.042,4.356-11.2,7.156-19.287,7.156-19.6,0-33.293-13.689-33.293-33.912m52.271,0c0-10.267-7.156-17.734-17.423-17.734-9.956,0-17.426,7.467-17.426,17.734,0,9.956,7.47,17.734,17.426,17.734,10.267,0,17.423-7.778,17.423-17.734" transform="translate(331.491 -45.792)" fill="#fff"/>
                  <path id="Path_65417" data-name="Path 65417" d="M207.92,78.655a10.758,10.758,0,0,1,10.889-10.578,10.491,10.491,0,0,1,10.578,10.578,10.758,10.758,0,0,1-10.578,10.889A11.023,11.023,0,0,1,207.92,78.655" transform="translate(58.726 -68.077)" fill="#e66a00"/>
                  <path id="Path_65418" data-name="Path 65418" d="M343.188,78.655a10.758,10.758,0,0,1,10.889-10.578,10.491,10.491,0,0,1,10.578,10.578,10.758,10.758,0,0,1-10.578,10.889,11.023,11.023,0,0,1-10.889-10.889" transform="translate(313.129 -68.077)" fill="#e66a00"/>
                </g>
              </g>
            </g>
          </g>
        </g>
      </g>
      <g id="Group_39288" data-name="Group 39288" transform="translate(230.536 1539.358)">
        <g id="Group_39288-2" data-name="Group 39288">
          <g id="Group_39287-2" data-name="Group 39287" clip-path="url(#clip-path)">
            <path id="Path_72279" data-name="Path 72279" d="M0,24.053V12.227A13.56,13.56,0,0,1,7.516,0l.6,1s-4.51,4.61-3.708,9.12H13.93v13.93Z" transform="translate(16.837)" fill="#fff"/>
            <path id="Path_72280" data-name="Path 72280" d="M382.861,24.053V12.227A13.56,13.56,0,0,1,390.377,0l.6,1s-4.51,4.61-3.708,9.12h9.521v13.93Z" transform="translate(-382.861)" fill="#fff"/>
          </g>
        </g>
        <g id="Group_39289" data-name="Group 39289" transform="translate(810.178)">
          <g id="Group_39287-3" data-name="Group 39287" clip-path="url(#clip-path)">
            <path id="Path_72279-2" data-name="Path 72279" d="M13.93,0V11.826A13.56,13.56,0,0,1,6.414,24.053l-.6-1s4.51-4.61,3.708-9.12H0V0Z" fill="#fff"/>
            <path id="Path_72280-2" data-name="Path 72280" d="M396.791,0V11.826a13.56,13.56,0,0,1-7.516,12.227l-.6-1s4.51-4.61,3.708-9.12h-9.521V0Z" transform="translate(-366.024)" fill="#fff"/>
          </g>
        </g>
      </g>
    </g>
    <g id="Group_39369" data-name="Group 39369">
      <g id="Group_39286" data-name="Group 39286" transform="translate(0 -252.495)">
        <g id="Group_39281" data-name="Group 39281" transform="translate(0 14.99)">
          <g id="Group_39279" data-name="Group 39279" transform="translate(0.373 -287)">
            <text id="_子どもの夢_" data-name="＜ 子どもの夢 ＞" transform="translate(682.627 1662.02)" fill="#fff" font-size="16" font-family="NotoSansJP-Bold, Noto Sans JP" font-weight="700" letter-spacing="0.25em"><tspan x="-75.632" y="0">＜ 子どもの夢 ＞</tspan></text>
          </g>
        </g>
      </g>
    </g>
  </g>
</svg>
