<svg xmlns="http://www.w3.org/2000/svg" xmlns:xlink="http://www.w3.org/1999/xlink" width="328.832" height="65.566" viewBox="0 0 328.832 65.566">
  <defs>
    <clipPath id="clip-path">
      <rect id="Rectangle_11176" data-name="Rectangle 11176" width="12.031" height="9.405" fill="#fff"/>
    </clipPath>
  </defs>
  <g id="Group_39370" data-name="Group 39370" transform="translate(-262.527 -996.756)">
    <g id="Group_39367" data-name="Group 39367" transform="translate(262.527 996.756)">
      <g id="Group_39287" data-name="Group 39287" transform="translate(18.147 0)">
        <g id="Group_39278" data-name="Group 39278" transform="translate(0 0)">
          <g id="Group_39096" data-name="Group 39096" transform="translate(0 0)">
            <g id="Group_39222" data-name="Group 39222">
              <g id="Group_39220" data-name="Group 39220">
                <g id="Group_39216" data-name="Group 39216">
                  <path id="Path_65403" data-name="Path 65403" d="M115.358,93.187c0-7.3,6.327-13.26,13.627-13.26,7.908,0,13.625,5.352,13.625,13.26a13.372,13.372,0,0,1-13.262,13.261,11.9,11.9,0,0,1-7.178-2.19v14.234h-6.813Zm20.439,0a6.613,6.613,0,0,0-6.813-6.934,6.683,6.683,0,0,0-6.814,6.934,6.754,6.754,0,0,0,6.814,6.934,6.681,6.681,0,0,0,6.813-6.934" transform="translate(-115.358 -66.579)" fill="#fff"/>
                  <path id="Path_65404" data-name="Path 65404" d="M142.29,93.118V80.466H149.1V93.118a6.754,6.754,0,0,0,6.814,6.934,6.682,6.682,0,0,0,6.813-6.934V80.466h6.812V93.118c0,7.908-6.812,13.261-13.747,13.261-7.908,0-13.5-5.353-13.5-13.261" transform="translate(-111.953 -66.51)" fill="#fff"/>
                  <path id="Path_65405" data-name="Path 65405" d="M169.113,93.187c0-7.3,6.326-13.26,13.627-13.26,7.907,0,13.139,4.988,13.624,13.26V95.5H175.8a6.98,6.98,0,0,0,6.936,5.11c2.189,0,3.405-.608,5.23-2.311l4.136,4.258a13.146,13.146,0,0,1-9.366,3.893c-7.909,0-13.627-5.353-13.627-13.261m20.56-2.92A6.916,6.916,0,0,0,182.74,85.4a7.017,7.017,0,0,0-6.814,4.866Z" transform="translate(-108.561 -66.579)" fill="#fff"/>
                  <path id="Path_65406" data-name="Path 65406" d="M195.964,89.955a9.136,9.136,0,0,1,9.489-9.489h2.433v6.326H205.94a3,3,0,0,0-3.163,3.163V105.77h-6.813Z" transform="translate(-105.166 -66.51)" fill="#fff"/>
                  <rect id="Rectangle_11156" data-name="Rectangle 11156" width="6.814" height="25.304" transform="translate(104.996 13.956)" fill="#fff"/>
                  <path id="Path_65407" data-name="Path 65407" d="M218.528,100.053h16.91a1.98,1.98,0,0,0,2.068-2.068,1.953,1.953,0,0,0-2.068-1.947h-9.854a7.761,7.761,0,0,1-7.786-7.786,7.921,7.921,0,0,1,7.786-7.786h15.085v5.718H226.192a2.027,2.027,0,0,0-2.068,1.946,1.98,1.98,0,0,0,2.068,2.068h9.854a7.686,7.686,0,0,1,7.786,7.786,8,8,0,0,1-7.786,7.786H218.528Z" transform="translate(-102.405 -66.51)" fill="#fff"/>
                  <path id="Path_65408" data-name="Path 65408" d="M242.239,93.187c0-7.3,6.327-13.26,13.627-13.26,7.908,0,13.625,5.352,13.625,13.26,0,7.3-6.326,13.261-13.625,13.261-7.908,0-13.627-5.353-13.627-13.261m20.439,0a6.613,6.613,0,0,0-6.813-6.934,6.683,6.683,0,0,0-6.814,6.934,6.755,6.755,0,0,0,6.814,6.934,6.681,6.681,0,0,0,6.813-6.934" transform="translate(-99.315 -66.579)" fill="#fff"/>
                  <path id="Path_65409" data-name="Path 65409" d="M269.171,93.187c0-7.909,6.813-13.26,13.747-13.26a13.536,13.536,0,0,1,10.342,4.258,14.168,14.168,0,0,1,10.1-4.258c7.906,0,13.5,5.352,13.5,13.26v12.652h-6.814V93.187a6.682,6.682,0,0,0-6.813-6.934,6.613,6.613,0,0,0-6.813,6.934v12.652H289.61V93.187a6.613,6.613,0,0,0-6.813-6.934,6.683,6.683,0,0,0-6.814,6.934v12.652h-6.813Z" transform="translate(-95.909 -66.579)" fill="#fff"/>
                  <path id="Path_65410" data-name="Path 65410" d="M315.484,93.187c0-7.909,6.814-13.26,13.748-13.26,7.909,0,13.5,5.352,13.5,13.26v12.652h-6.812V93.187a6.613,6.613,0,0,0-6.813-6.934,6.682,6.682,0,0,0-6.813,6.934v12.652h-6.814Z" transform="translate(-90.053 -66.579)" fill="#fff"/>
                  <rect id="Rectangle_11157" data-name="Rectangle 11157" width="6.814" height="25.304" transform="translate(257.367 13.956)" fill="#fff"/>
                  <path id="Path_65411" data-name="Path 65411" d="M352.951,93.187c0-7.3,6.327-13.26,13.627-13.26,7.908,0,13.625,5.352,13.625,13.26v12.652h-6.692v-2.19a10.383,10.383,0,0,1-7.542,2.8c-7.665,0-13.018-5.353-13.018-13.261m20.439,0a6.613,6.613,0,0,0-6.813-6.934,6.683,6.683,0,0,0-6.814,6.934,6.755,6.755,0,0,0,6.814,6.934,6.681,6.681,0,0,0,6.813-6.934" transform="translate(-85.316 -66.579)" fill="#fff"/>
                  <path id="Path_65417" data-name="Path 65417" d="M207.92,72.213a4.207,4.207,0,0,1,4.258-4.136,4.1,4.1,0,0,1,4.136,4.136,4.207,4.207,0,0,1-4.136,4.258,4.31,4.31,0,0,1-4.258-4.258" transform="translate(-103.654 -68.077)" fill="#e66a00"/>
                  <path id="Path_65418" data-name="Path 65418" d="M343.188,72.213a4.207,4.207,0,0,1,4.258-4.136,4.1,4.1,0,0,1,4.136,4.136,4.207,4.207,0,0,1-4.136,4.258,4.31,4.31,0,0,1-4.258-4.258" transform="translate(-86.55 -68.077)" fill="#e66a00"/>
                </g>
              </g>
            </g>
          </g>
        </g>
      </g>
      <g id="Group_39288" data-name="Group 39288" transform="translate(0 10.987)">
        <g id="Group_39288-2" data-name="Group 39288">
          <g id="Group_39287-2" data-name="Group 39287" clip-path="url(#clip-path)">
            <path id="Path_72279" data-name="Path 72279" d="M0,9.405V4.781A5.3,5.3,0,0,1,2.939,0l.235.392s-1.763,1.8-1.45,3.566H5.447V9.405Z" transform="translate(6.584)" fill="#fff"/>
            <path id="Path_72280" data-name="Path 72280" d="M382.861,9.405V4.781A5.3,5.3,0,0,1,385.8,0l.235.392s-1.763,1.8-1.45,3.566h3.723V9.405Z" transform="translate(-382.861)" fill="#fff"/>
          </g>
        </g>
        <g id="Group_39289" data-name="Group 39289" transform="translate(316.802)">
          <g id="Group_39287-3" data-name="Group 39287" clip-path="url(#clip-path)">
            <path id="Path_72279-2" data-name="Path 72279" d="M5.447,0V4.624A5.3,5.3,0,0,1,2.508,9.405l-.235-.392s1.763-1.8,1.45-3.566H0V0Z" fill="#fff"/>
            <path id="Path_72280-2" data-name="Path 72280" d="M388.308,0V4.624a5.3,5.3,0,0,1-2.939,4.781l-.235-.392s1.763-1.8,1.45-3.566h-3.723V0Z" transform="translate(-376.277)" fill="#fff"/>
          </g>
        </g>
      </g>
    </g>
    <g id="Group_39369" data-name="Group 39369" transform="translate(342.943 1046.322)">
      <g id="Group_39286" data-name="Group 39286" transform="translate(0 0)">
        <g id="Group_39281" data-name="Group 39281">
          <g id="Group_39279" data-name="Group 39279">
            <text id="_子どもの頃の夢_" data-name="＜ 子どもの頃の夢 ＞" transform="translate(84 12)" fill="#fff" font-size="14" font-family="NotoSansJP-Bold, Noto Sans JP" font-weight="700" letter-spacing="0.25em"><tspan x="-83.678" y="0">＜ 子どもの頃の夢 ＞</tspan></text>
          </g>
        </g>
      </g>
    </g>
  </g>
</svg>
