<svg xmlns="http://www.w3.org/2000/svg" xmlns:xlink="http://www.w3.org/1999/xlink" width="703" height="274" viewBox="0 0 703 274">
  <defs>
    <clipPath id="clip-path">
      <path id="Union_3" data-name="Union 3" d="M2133,2739V2465h703v132H2684v142Z" transform="translate(-2048 -2088)" fill="#c0c2cd"/>
    </clipPath>
  </defs>
  <g id="Mask_Group_101" data-name="Mask Group 101" transform="translate(-85 -377)" clip-path="url(#clip-path)">
    <g id="Group_40045" data-name="Group 40045">
      <g id="Group_40044" data-name="Group 40044" transform="translate(87 379.215)">
        <g id="Group_40043" data-name="Group 40043">
          <path id="Path_72588" data-name="Path 72588" d="M138.261,84.584a98.077,98.077,0,0,1-17.942,20.632c1.881,3.993,4.333,6.122,7.53,6.122s4.775-2.529,7.2-13.044a28.561,28.561,0,0,0,8.627,7.188c-4.849,15.041-9.1,19.034-19.078,19.034-7.159,0-12.259-3.86-15.712-10.648a112.111,112.111,0,0,1-21.087,10.515,45.851,45.851,0,0,0-6.213-10.116,96.761,96.761,0,0,0,23.381-11.98,115.806,115.806,0,0,1-2.095-22.362H88.421c-.422,1.73-.97,3.46-1.5,5.057,4.971,3.86,10.425,8.652,13.14,12.246L90.1,107.744a63.708,63.708,0,0,0-8.312-9.051c-4.654,10.116-11.151,19.034-21.333,25.557-1.121-3.195-4.123-8.12-6.809-10.383,12.582-7.854,17.92-20.5,21.475-33.942H67.2l1.015-5.991-6.445,7.854c-.6-3.994-2.122-10.116-3.687-15.973l-9.92,58.568H34.608l8.319-49.118C38.34,84.983,33.378,93.9,28.46,100.29a77.245,77.245,0,0,0-4.116-13.443c8.429-10.516,17.573-29.018,23.2-44.859H34.883l2.434-14.375H51L55.642.193H69.194l-4.645,27.42h11.38c-.737-.932-1.624-1.731-2.385-2.53l7.091-8.652,1.88,1.731C85.764,12.572,89.447,5.917,91.689.991l10.483,4.526c-4.662,6.389-9.608,13.71-13.579,19.035.948,1.2,1.9,2.4,2.61,3.46,3.323-4.525,6.24-8.918,8.707-12.911l7.822,4.393c.932-6.256,1.886-12.646,2.991-19.167h13.424c-1.39,7.454-2.607,14.642-3.675,21.7l4.655-5.591,1.775,1.6A171.064,171.064,0,0,0,136.053.991l10.637,4.392c-4.708,6.656-9.633,13.844-13.709,19.036l2.738,3.46c3.174-4.392,6.241-8.918,8.685-12.779l9.454,5.324c-6.534,8.386-14.317,18.1-21.273,25.956l7.761-.532c-.322-1.864-.775-3.728-1.249-5.457l9.108-3.2c1.881,6.256,3.424,14.509,3.312,19.7l-9.754,3.993a50.527,50.527,0,0,0-.144-5.191l-9.686,1.331a39.265,39.265,0,0,1,8.3,8.386l-2.813,2.263h9.717l-2.073,12.246h-17.9ZM102.9,67.679c.218-2.8.33-5.724.442-8.653l-9.3,3.595c.074-1.2.173-2.529.165-3.993-8.468.932-16.576,2-23.87,2.8l-.063-11.713,4.009-.267c3.015-3.46,6.377-7.454,9.656-11.713a65.706,65.706,0,0,0-7.793-9.85L73.75,41.988H62.115l-.969,5.724c1.986,4.127,6.387,14.377,8.508,19.967Zm-1.568-28.486A72.535,72.535,0,0,1,103.79,54.1c.75-9.717,1.847-19.967,3.394-30.615-6.511,8.252-14.1,17.569-20.858,25.024l6.994-.533a57.024,57.024,0,0,0-1.032-5.99Zm14.708,40.732c.152,4.392.476,8.519.89,12.112a70.109,70.109,0,0,0,9.466-12.112Zm10.9-12.246a55.909,55.909,0,0,0-5.3-4.926l6.633-5.191c-4.031.4-7.83.932-11.478,1.331l-.135-3.727c-.36,4.393-.548,8.519-.585,12.513Zm-6.779-20.366c2.519-2.8,5.257-6.124,8.016-9.584a68.864,68.864,0,0,0-8.4-10.783c-1.089,7.188-1.857,13.977-2.471,20.632Z" transform="translate(-7.408 -0.059)" fill="#fff"/>
          <path id="Path_72589" data-name="Path 72589" d="M254.609,72.338c-.8-2.8-2.212-7.321-3.792-11.58l-10.8,63.759H226.082l7.778-45.922c-4.774,9.317-9.67,17.836-14.5,23.693-.534-4.393-2.792-11.447-4.394-15.573,9.106-9.984,18.693-28.086,24.932-43.793l.317-1.864H226.41l2.479-14.642H242.7L247.139.193h13.936l-4.441,26.222h10.1l-2.48,14.642h-10.1l-.361,2.13C256.38,46.78,263.03,58.1,264.3,61.157Zm86.312-24.226c-6.954,19.169-15.2,35.408-25.406,48.852.2,7.854,1.333,12.513,3.378,12.513,1.534,0,3.527-5.723,6.007-18.1a28.069,28.069,0,0,0,8.875,7.987c-5.1,18.769-9.6,24.226-19.061,24.226-5.626,0-9.139-4.926-11.066-13.178a100.937,100.937,0,0,1-15.716,12.778,62.312,62.312,0,0,0-8.89-8.652c3.128-1.864,6.023-3.86,8.791-5.856h-9.972l5.3-31.281h-5.881c-3.36,15.307-9.005,31.281-20.993,43.926a35.034,35.034,0,0,0-8.514-7.854C258.14,102.82,263.012,89.909,265.9,77.4h-6.138l2.3-13.578h6.393l3.539-20.9h11.38l-3.539,20.9h5.625l3.584-21.165H300.55l-3.584,21.165h5.37l-2.3,13.578h-5.37l-5.072,29.949a101.009,101.009,0,0,0,12.535-12.113c-.5-15.175,1.371-35.274,4.279-56.971H268.435l2.412-14.242h37.589c1.179-7.721,2.427-15.84,3.757-23.693h14.064c-1.48,7.986-2.961,15.973-4.141,23.693H344.49l-2.411,14.242H319.96c-1.789,13.577-3.163,26.223-3.944,36.871a167.612,167.612,0,0,0,12.692-28.885Zm-3.435-45.39A50.409,50.409,0,0,1,344.76,17.9L333.24,24.019c-.813-4.26-3.627-11.048-6.395-15.84Z" transform="translate(-65.416 -0.059)" fill="#fff"/>
          <path id="Path_72590" data-name="Path 72590" d="M448.105,66.695a230.062,230.062,0,0,0,25.785-2.7L471.971,74.8A266.529,266.529,0,0,1,442.4,77.129a82.424,82.424,0,0,1-6.711,9.505,31.974,31.974,0,0,1,10.43-1.863c5.459,0,9.524,2.422,10.688,7.173,5.033-2.236,9.059-3.819,13.014-5.5,3.758-1.583,7.143-3.074,10.755-4.845l2.644,10.808c-3.006.838-8.065,2.7-11.313,3.913-4.311,1.677-9.76,3.726-15.662,6.335-.794,5.219-1.782,12.114-2.419,16.4h-10.74c.742-2.795,1.589-7.269,2.373-11.368-7.391,4.007-11.587,7.641-12.376,12.3-.868,5.126,3.1,6.523,11.873,6.523a148.149,148.149,0,0,0,25.859-2.609l-2.394,12.02a222.089,222.089,0,0,1-25.6,1.583c-14.052,0-23.835-3.54-21.8-15.559,2.02-11.927,14.022-19.381,25.156-24.879-.948-2.33-3.222-3.168-5.728-3.168-5.013,0-11.066,2.982-15.051,6.43a136.633,136.633,0,0,0-10.059,10.25l-8.314-7.454c10.928-9.038,18.686-17.332,24.134-25.716H430c-3.67,0-10.172-.187-15.031-.56l1.846-10.9a107.818,107.818,0,0,0,15.563,1.119h4.3a60.512,60.512,0,0,0,3.605-10.716l11.64,1.024c-.842,2.33-1.989,5.4-3.815,9.319" transform="translate(-123.86 -17.148)" fill="#a2a2a2"/>
          <path id="Path_72591" data-name="Path 72591" d="M645.062,34.077a58.48,58.48,0,0,1-17.709,20.765A93.14,93.14,0,0,0,648.8,58.835a51.37,51.37,0,0,0-9.609,11.448C628.8,68.952,620.3,66.29,613.538,62.429a95.118,95.118,0,0,1-11.092,3.594l11.011,7.454c-10.581,5.857-23.1,11.848-34.849,17.038,9.612-.134,19.585-.134,29.579-.266-2.287-1.6-4.724-3.061-6.927-4.392l11.152-7.721c9.011,4.926,20.315,12.912,25.822,18.9l-12.077,8.652a48.933,48.933,0,0,0-4.874-5.191l-13.492.4c9.13,3.46,21.457,9.184,27.979,13.709l-13.25,8.785c-5.649-4.393-17.758-10.648-27.077-14.509l12.093-7.986-19.141.532-3.9,23.028H569.535l3.833-22.628-19.524.532,11.185,4.925c-9.543,6.522-23.772,12.779-34.992,16.373a106.756,106.756,0,0,0-8.958-10.515c10.634-2.4,22.584-6.522,30.337-10.782-9.484.133-18.073.266-25.639.4l1.714-12.38c7.521.134,16.726.134,26.7.134,1.775-.665,3.444-1.464,5.241-2.262a136.1,136.1,0,0,0-17.006-11.315l11.2-7.986c1.994,1.064,3.987,2.13,6.063,3.46a169.357,169.357,0,0,0,15.25-10.782h-8.565l-1.06,6.256H552.4l1.06-6.256H531.081l1.488-8.785h22.375l.653-3.86h-19.05l5.1-30.083h19.05l.654-3.86h-21.48l1.442-8.519h21.48L563.893,0h12.914l-1.1,6.523h21.479l-1.442,8.519h-21.48l-.654,3.86h19.306l-.9,5.325c8.709-3.86,10.475-8.253,11.242-12.779l1.285-7.588H641.1l-1.691,9.984a8.7,8.7,0,0,0-.2,3.461,1.025,1.025,0,0,0,1.06.532h1.918a5.018,5.018,0,0,0,1.579-.266,3.237,3.237,0,0,0,1.316-1.73,48.887,48.887,0,0,0,1.57-6.257c1.708,2,5.462,3.994,8.244,4.926-1.038,3.86-2.226,7.853-3.286,9.583a10.37,10.37,0,0,1-4.722,3.728,18.855,18.855,0,0,1-6.19,1.064h-5.753c-2.941,0-6.107-.932-7.71-2.8-1.557-2.13-1.745-4.791-.573-11.713H615.412a27.893,27.893,0,0,1-11.391,17.437h31.322l2.37-.4Zm-88.225,7.588.721-4.26h-7.671l-.721,4.26Zm-5.755-11.314h7.671l.7-4.127h-7.671Zm38,27.02a99.266,99.266,0,0,0,14.711-3.061A34.809,34.809,0,0,1,597.6,44.061l8.521-2H594.486l1.737-10.249h1.023a46.387,46.387,0,0,0-5.3-7.189l-4.125,24.359H568.511l-.655,3.86h21.991Zm-.593,8.786C581.862,70.549,574.748,74.808,568.71,78A56.564,56.564,0,0,1,573.7,81.73c10.446-5.058,20.748-10.782,28.464-15.573-3.2.8-6.385,1.464-9.694,2.13a37.465,37.465,0,0,0-3.6-9.717l-.519,3.061h-8.438ZM570.472,37.4l-.721,4.26h7.415l.722-4.26Zm1.894-11.181-.7,4.127h7.416l.7-4.127Zm37.591,15.84a21.483,21.483,0,0,0,6.22,7.055,43.654,43.654,0,0,0,9.633-7.055Z" transform="translate(-158.565)" fill="#fff"/>
          <path id="Path_72592" data-name="Path 72592" d="M735.947,67.933c-3.988,10.342-10.524,29.911-10.065,41.465,1.653-2.889,4.126-7.454,6.126-10.81l5.008,3.728c-4.043,8.012-7.964,17.424-10.011,22.641a36.559,36.559,0,0,0-1.311,4.566c-.083,1.025-.262,2.609-.393,3.913l-10.2,1.025a100.425,100.425,0,0,1,.012-30.189A280.887,280.887,0,0,1,724.38,67c.785-2.516,1.41-5.685,1.894-8.014L739.3,60.295c-1.111,2.328-2.663,5.683-3.353,7.639m45.761-2.795c-.422,1.957-1.242,6.8-2.126,12.02,5.449-.467,10.556-1.025,14.62-1.771L792.061,87.5c-3.928.466-8.913.838-14.346,1.212-.253,1.49-.49,2.889-.647,3.821-3.725,21.989-7.624,35.5-27.439,47.332l-8.945-8.478a42.939,42.939,0,0,0,11.734-7.454c8.064-7.455,10.991-15.748,13.657-31.494.158-.932.347-2.051.552-3.261-3.058.093-6.19.093-9.144.093-3.938,0-9.35-.28-13.778-.559l1.988-11.741a87.774,87.774,0,0,0,13.446.932c2.953,0,6.1-.093,9.25-.186.778-5.125,1.437-10.064,1.683-12.58a46.706,46.706,0,0,0,.105-6.43h12.888c-.527,2.051-.995,4.288-1.357,6.43m11.514,3.355-6.54,2.143a101.593,101.593,0,0,0-2.413-13.231l6.418-1.957a92.649,92.649,0,0,1,2.534,13.045m9.9-2.981-6.433,2.049a109.451,109.451,0,0,0-2.713-13.044l6.432-2.051a108.762,108.762,0,0,1,2.713,13.046" transform="translate(-217.262 -15.966)" fill="#a2a2a2"/>
          <path id="Path_72593" data-name="Path 72593" d="M865.814,73.305c7.539-.652,22.543-2.05,39.174-3.541,9.344-.745,19.3-1.4,25.6-1.584l-1.931,11.927c-4.849.093-12.546.093-17.479,1.211C899.841,84.3,889.734,96.413,887.857,107.5c-2.588,15.281,10.248,20.872,25.231,21.71l-6.368,12.766c-18.485-1.305-34.422-11.835-31.014-31.96,2.272-13.417,11.321-24.039,18.123-28.791-8.572.932-27.177,2.982-37.952,5.311l1-12.765c3.6-.093,7.118-.279,8.94-.465" transform="translate(-260.445 -20.747)" fill="#a2a2a2"/>
          <path id="Path_72594" data-name="Path 72594" d="M969.388,141.213l10.728-8.386a128.121,128.121,0,0,1,16.055,20.406L985.143,161.8a139.8,139.8,0,0,0-15.755-20.592" transform="translate(-294.987 -40.42)" fill="#a2a2a2"/>
          <path id="Path_72595" data-name="Path 72595" d="M30,230.065h70.32c3.2,0,8.053,0,12.7-.266-.932,3.993-1.766,8.918-2.443,12.912L99.535,307.934c-.879,5.191-2.788,17.969-2.878,18.5H79.013c.045-.267.692-3.329,1.346-7.188H18.734c-.5,3.726-1.022,6.788-1.09,7.188H0c.113-.666,2.458-12.246,3.54-18.636l11.023-65.089c.632-3.728,1.556-9.185,1.932-12.912,5.219.134,10.054.266,13.507.266m-8.384,72.145H83.372l9.356-55.24H30.975Z" transform="translate(0 -69.928)" fill="#e66a00"/>
          <path id="Path_72596" data-name="Path 72596" d="M176.978,306.072l-12.141-9.849c10.01-8.52,22.717-23.161,29.854-34.343l13.252,7.055c-7.888,11.848-22.6,29.285-30.965,37.137m67.593-82.793-1.8,10.648h29.79A103,103,0,0,0,285.372,233l-2.953,17.438c-4.046-.266-9.01-.4-12.462-.4H240.039l-10.483,61.9c-1.308,7.72-6.338,12.512-15.415,12.512a172.286,172.286,0,0,1-20.638-1.2l1.262-16.505a80.46,80.46,0,0,0,13.921,1.6c3.325,0,4.829-1.33,5.542-4.791.962-4.926,8.108-47.121,9.169-53.377l.022-.134H190.943c-3.835,0-8.844.134-12.492.532l3-17.7a89.634,89.634,0,0,0,12.221,1.064h32.475l1.8-10.648a71.222,71.222,0,0,0,.81-11.581h18.922c-.571,1.863-2.549,8.252-3.113,11.581m35.546,73.21-16.53,8.52c-3.559-11.448-9.909-27.555-14.671-35.674l15.267-7.854c5.077,8.52,12.465,25.291,15.934,35.008m-.927-70.016L268.067,231c-1.656-5.324-4.018-12.512-6.613-17.571l10.844-4.392a164.457,164.457,0,0,1,6.892,17.436m17.425-3.992-10.889,4.658a107.324,107.324,0,0,0-7-17.571l10.822-4.259a124.8,124.8,0,0,1,7.064,17.171" transform="translate(-50.16 -62.476)" fill="#e66a00"/>
          <path id="Path_72597" data-name="Path 72597" d="M382.935,291.826l-15.1,5.556c-.868-6.523-3.948-22.589-5.833-27.9l14.8-5.194c1.858,6.161,4.952,20.777,6.126,27.543m58.92-16.309c-5.083,12.2-12.084,24.764-21.774,35.394a115.06,115.06,0,0,1-43.944,29.959l-9.994-12.925c13.357-3.5,31.039-12.684,42.8-25.247,9.629-10.269,17.919-26.334,21.869-41.434l15.323,5.436c-2.047,3.865-3.172,6.4-4.279,8.818m-32.009,8.819-14.783,5.074a182.422,182.422,0,0,0-4.857-26.818l14.606-4.711c1.324,5.194,4.35,20.9,5.033,26.455" transform="translate(-110.159 -78.474)" fill="#e66a00"/>
          <path id="Path_72598" data-name="Path 72598" d="M503.932,230.084a96.36,96.36,0,0,0,1.427-15.973H525.3a162.564,162.564,0,0,0-3.856,15.973l-3.337,19.7c16.253,5.191,39.2,14.642,49.948,20.632l-10.4,18.368c-11.951-7.187-29.821-14.907-42.794-19.834l-6.38,37.671c-.655,3.861-1.593,13.177-2.006,18.635H486.534a164.041,164.041,0,0,0,4.435-18.635Z" transform="translate(-148.053 -65.154)" fill="#e66a00"/>
          <path id="Path_72599" data-name="Path 72599" d="M640.225,273.653c-2.221,6.242-8.51,24.877-10.088,34.2a47.26,47.26,0,0,0-.669,6.056c1.879-3.168,3.863-6.429,5.637-9.5l4.777,4.566c-3.817,7.734-8.49,17.89-10.312,22.829a32.114,32.114,0,0,0-1.189,4.379c-.174,1.025-.337,2.516-.468,3.821l-10.508.745c-.7-6.429-.477-17.8,1.67-30.468,2.367-13.977,7.809-29.724,10.008-36.9.71-2.609,1.846-6.149,2.442-9.132l12.34,1.119c-1.047,1.957-3,6.615-3.641,8.293m14.388,45.563c-.694,4.1,2.281,6.615,11.41,6.615a107.37,107.37,0,0,0,22.875-2.422l-1.951,12.579a126.93,126.93,0,0,1-23.392,1.77c-15.393,0-21.859-5.684-20.234-15.28a65.319,65.319,0,0,1,3.573-12.114l10.12,1.025a36.465,36.465,0,0,0-2.4,7.827m40.479-47.707-2.036,12.02a230.805,230.805,0,0,1-38.485,0l2.02-11.927c10.74,1.585,28.629,1.119,38.5-.093" transform="translate(-187.77 -80.409)" fill="#a2a2a2"/>
          <path id="Path_72600" data-name="Path 72600" d="M769.5,350.322c-1.405,8.293-9,15.094-17.055,15.094-7.876,0-13.259-6.8-11.854-15.094s9.091-15.095,16.967-15.095c8.055,0,13.346,6.8,11.942,15.095m-6.444,0c.789-4.659-2.159-8.387-6.634-8.387-4.3,0-8.6,3.728-9.386,8.387s2.248,8.386,6.545,8.386c4.475,0,8.686-3.728,9.475-8.386" transform="translate(-225.296 -102.01)" fill="#a2a2a2"/>
        </g>
      </g>
    </g>
  </g>
</svg>
